<?xml version="1.0" standalone="no"?>
<!DOCTYPE svg PUBLIC "-//W3C//DTD SVG 20010904//EN"
 "http://www.w3.org/TR/2001/REC-SVG-20010904/DTD/svg10.dtd">
<svg version="1.0" xmlns="http://www.w3.org/2000/svg"
 width="1176.000000pt" height="1176.000000pt" viewBox="0 0 1176.000000 1176.000000"
 preserveAspectRatio="xMidYMid meet">
<metadata>
Created by potrace 1.14, written by Peter Selinger 2001-2017
</metadata>
<g transform="translate(0.000000,1176.000000) scale(0.100000,-0.100000)"
fill="#000000" stroke="none">
<path d="M500 9731 c-35 -17 -378 -194 -455 -235 -22 -11 -41 -21 -42 -21 -1
-1 17 -39 41 -86 145 -282 198 -385 205 -394 5 -5 12 -21 16 -35 4 -14 11 -27
14 -30 4 -3 33 -57 65 -120 32 -63 82 -160 111 -215 29 -55 92 -176 140 -270
48 -93 111 -215 140 -270 29 -55 94 -181 145 -280 52 -99 119 -229 151 -290
78 -150 161 -311 253 -490 42 -82 81 -154 87 -159 5 -6 9 -17 9 -25 1 -9 11
-29 24 -44 l23 -29 1849 0 c1017 1 1854 2 1859 3 6 1 15 0 20 -1 32 -7 56 -6
61 2 3 4 10 6 15 2 8 -5 355 -8 384 -3 6 1 15 0 20 -1 32 -7 56 -6 61 2 3 4
10 6 15 2 8 -5 355 -8 384 -3 6 1 15 0 20 -1 32 -7 56 -6 61 2 3 4 10 6 15 2
8 -5 355 -8 384 -3 6 1 15 0 20 -1 32 -7 56 -6 61 2 3 4 10 6 15 2 8 -5 355
-8 384 -3 6 1 15 0 20 -1 32 -7 56 -6 61 2 3 4 10 6 15 2 8 -5 355 -8 384 -3
6 1 15 0 20 -1 32 -7 56 -6 61 2 3 4 10 6 15 2 8 -5 355 -8 384 -3 6 1 15 0
20 -1 32 -7 56 -6 61 2 3 4 10 6 15 2 8 -5 355 -8 384 -3 6 1 15 0 20 -1 32
-7 56 -6 61 2 3 4 10 6 15 2 8 -5 355 -8 384 -3 6 1 15 0 20 -1 32 -7 56 -6
61 2 3 4 10 6 15 2 8 -5 355 -8 384 -3 6 1 15 0 20 -1 32 -7 56 -6 61 2 3 4
10 6 15 2 8 -5 355 -8 384 -3 6 1 15 0 20 -1 32 -7 56 -6 61 2 3 4 10 6 15 2
8 -5 121 -7 272 -5 27 1 47 6 47 12 0 6 9 24 21 40 11 16 17 29 14 29 -4 0 1
7 9 16 9 8 16 24 16 34 0 10 4 20 8 22 4 2 34 55 67 118 32 63 84 163 114 222
31 59 90 174 131 255 41 82 77 150 80 153 3 3 29 52 58 110 30 58 90 175 134
260 45 85 110 211 146 280 35 69 69 131 74 138 6 6 7 12 3 12 -4 0 -3 6 3 13
5 6 35 62 67 122 31 61 62 116 67 123 6 6 8 12 5 12 -3 0 10 27 29 61 18 33
34 64 34 69 0 4 9 19 20 33 12 15 21 29 20 32 0 6 51 108 125 250 29 55 78
149 109 209 l56 110 -32 16 c-18 9 -103 53 -188 97 -85 45 -190 99 -233 121
l-77 40 -15 -21 c-8 -12 -15 -27 -15 -33 0 -7 -3 -14 -7 -16 -5 -1 -33 -52
-63 -113 -30 -60 -57 -112 -60 -115 -3 -3 -49 -90 -102 -195 -53 -104 -129
-251 -167 -325 -39 -74 -92 -178 -118 -230 -27 -52 -50 -97 -53 -100 -3 -3
-18 -32 -35 -65 -16 -33 -34 -63 -40 -67 -5 -4 -6 -8 -2 -8 4 0 -3 -19 -16
-42 -14 -24 -57 -106 -97 -183 -39 -77 -76 -146 -82 -152 -6 -7 -7 -13 -2 -13
5 0 5 -4 -1 -8 -5 -4 -40 -65 -76 -137 -147 -287 -222 -431 -231 -442 -6 -7
-7 -13 -4 -13 4 0 -1 -12 -12 -27 -10 -16 -24 -42 -31 -60 -7 -18 -21 -34 -30
-37 -9 -3 -1855 -5 -4102 -4 l-4086 0 -59 116 c-32 65 -61 119 -64 122 -3 3
-25 46 -50 95 -25 50 -53 102 -63 118 -10 15 -15 27 -11 27 3 0 2 6 -4 13 -6
6 -43 75 -82 152 -40 77 -96 185 -125 240 -78 149 -115 224 -114 231 0 4 -3
10 -8 13 -5 3 -34 56 -65 116 -52 102 -111 215 -144 275 -8 14 -14 29 -14 33
0 5 -9 22 -21 38 -11 16 -22 35 -23 42 -1 7 -6 19 -11 27 -5 8 -28 51 -51 95
-101 198 -155 299 -165 312 -6 7 -8 13 -4 13 4 0 3 6 -3 13 -5 6 -44 80 -87
162 -43 83 -78 151 -79 152 0 1 -17 -6 -36 -16z"/>
<path d="M1422 5018 c-9 -4 -12 -7 -7 -7 6 -1 5 -5 -2 -9 -6 -4 -26 -37 -45
-74 -58 -117 -164 -322 -244 -475 -141 -269 -212 -406 -286 -553 -40 -80 -75
-147 -78 -150 -3 -3 -31 -54 -62 -115 -31 -60 -81 -157 -111 -215 -30 -58 -87
-168 -127 -245 -40 -77 -107 -207 -149 -290 -42 -82 -78 -152 -82 -155 -3 -3
-35 -63 -71 -135 -36 -71 -86 -170 -111 -219 -26 -49 -46 -90 -44 -91 1 -1 38
-20 82 -41 44 -22 82 -41 85 -44 3 -3 59 -33 125 -67 66 -33 147 -75 180 -92
69 -36 65 -35 65 -17 0 8 3 16 8 18 4 2 23 36 42 76 19 39 38 72 42 72 4 0 8
8 8 18 0 10 4 22 9 28 4 5 52 95 106 199 54 105 121 235 150 290 79 150 173
332 260 500 43 83 110 213 150 290 40 77 99 192 131 255 32 63 61 117 64 120
3 3 46 86 97 185 50 99 111 217 134 261 l43 82 4097 0 4098 0 52 -102 c28 -55
75 -146 104 -201 60 -115 185 -355 293 -565 41 -80 108 -210 149 -289 42 -79
96 -185 122 -235 26 -50 53 -102 61 -116 7 -14 17 -33 21 -42 5 -9 28 -54 52
-100 42 -79 186 -358 326 -630 58 -114 75 -135 91 -117 3 3 43 25 90 49 204
104 296 152 307 162 7 6 13 8 13 4 0 -3 18 5 40 19 22 14 44 25 50 25 14 0 16
-4 -47 116 -31 60 -74 145 -97 189 -23 44 -46 87 -51 95 -5 8 -10 20 -11 27
-1 7 -12 26 -24 43 -12 16 -18 30 -14 30 3 0 2 6 -4 13 -10 13 -53 93 -192
362 -45 88 -111 214 -145 280 -34 66 -106 206 -160 310 -54 105 -102 196 -108
203 -5 6 -6 12 -2 12 5 0 1 8 -7 18 -8 9 -38 62 -66 117 -28 55 -82 161 -120
235 -39 74 -97 187 -130 250 -110 215 -224 435 -227 438 -3 3 -184 5 -200 2
-5 -1 -14 -1 -20 0 -10 2 -536 1 -545 -1 -3 -1 -9 0 -15 1 -12 3 -206 2 -220
0 -5 -2 -14 -1 -20 0 -32 7 -56 6 -61 -2 -3 -4 -10 -5 -16 -2 -9 6 -196 9
-223 4 -5 -2 -14 -1 -20 0 -12 3 -206 2 -220 0 -5 -2 -14 -1 -20 0 -12 3 -206
2 -220 0 -5 -2 -14 -1 -20 0 -12 2 -365 2 -380 -1 -5 -1 -14 0 -20 1 -12 3
-206 2 -220 0 -5 -2 -14 -2 -20 0 -11 2 -685 1 -700 -1 -5 -1 -14 0 -20 1 -12
3 -206 2 -220 0 -5 -2 -14 -2 -19 -1 -11 2 -1007 2 -1021 0 -5 -1 -14 0 -20 1
-12 3 -206 2 -220 0 -5 -2 -14 -1 -20 0 -10 2 -536 1 -545 -1 -3 -1 -9 0 -15
1 -12 3 -206 2 -220 0 -5 -2 -14 -1 -20 0 -32 7 -56 6 -61 -2 -3 -4 -10 -5
-16 -2 -9 6 -196 9 -223 4 -5 -2 -14 -2 -18 -1 -12 2 -530 2 -542 0 -5 -1 -14
0 -20 1 -12 3 -206 2 -220 0 -5 -2 -14 -1 -20 0 -10 2 -536 1 -545 -1 -3 -1
-9 0 -15 1 -12 3 -206 2 -220 0 -5 -2 -14 -1 -20 0 -32 7 -56 6 -61 -2 -3 -4
-10 -5 -16 -2 -9 6 -196 9 -223 4 -5 -2 -14 -1 -20 0 -32 7 -56 6 -61 -2 -3
-4 -10 -5 -16 -2 -9 6 -196 9 -223 4 -5 -2 -14 -1 -20 0 -32 7 -56 6 -61 -2
-3 -4 -10 -5 -16 -2 -13 8 -216 9 -224 1 -3 -3 -11 -4 -18 -1 -19 7 -526 9
-544 2z"/>
</g>
</svg>
